<?xml version="1.0" encoding="UTF-8"?>
<svg id="Layer_1" data-name="Layer 1" xmlns="http://www.w3.org/2000/svg" xmlns:xlink="http://www.w3.org/1999/xlink" viewBox="0 0 471.03 478.19">
  <defs>
    <style>
      .cls-1, .cls-2 {
        fill: none;
      }

      .cls-2 {
        stroke: #fff;
        stroke-miterlimit: 10;
        stroke-width: 3.86px;
      }

      .cls-3 {
        fill: url(#linear-gradient-3);
      }

      .cls-4 {
        fill: url(#linear-gradient-2);
      }

      .cls-5 {
        fill: url(#linear-gradient);
      }

      .cls-6 {
        fill: #fff;
      }

      .cls-7 {
        fill: #5f666c;
      }

      .cls-8 {
        fill: #1b2562;
      }

      .cls-9 {
        clip-path: url(#clippath);
      }
    </style>
    <linearGradient id="linear-gradient" x1="113.75" y1="116.72" x2="300.3" y2="116.72" gradientUnits="userSpaceOnUse">
      <stop offset=".21" stop-color="#1b2562"/>
      <stop offset=".3" stop-color="#192d67"/>
      <stop offset=".46" stop-color="#174476"/>
      <stop offset=".64" stop-color="#12698d"/>
      <stop offset=".8" stop-color="#0e8fa6"/>
      <stop offset="1" stop-color="#09b4be"/>
    </linearGradient>
    <linearGradient id="linear-gradient-2" x1="88.46" y1="114.35" x2="338.62" y2="114.35" gradientUnits="userSpaceOnUse">
      <stop offset=".18" stop-color="#1b2562"/>
      <stop offset=".27" stop-color="#1a2763"/>
      <stop offset=".32" stop-color="#192f69"/>
      <stop offset=".36" stop-color="#173e72"/>
      <stop offset=".4" stop-color="#14527f"/>
      <stop offset=".43" stop-color="#11698f"/>
      <stop offset=".72" stop-color="#0e8aa3"/>
      <stop offset=".76" stop-color="#0e8fa6"/>
      <stop offset="1" stop-color="#09b4be"/>
    </linearGradient>
    <linearGradient id="linear-gradient-3" x1="114.12" y1="196.72" x2="352.86" y2="196.72" gradientUnits="userSpaceOnUse">
      <stop offset=".24" stop-color="#1b2562"/>
      <stop offset=".3" stop-color="#1a2965"/>
      <stop offset=".36" stop-color="#18376e"/>
      <stop offset=".42" stop-color="#144e7d"/>
      <stop offset=".48" stop-color="#11698f"/>
      <stop offset=".65" stop-color="#0f7e9b"/>
      <stop offset=".76" stop-color="#0e8fa6"/>
      <stop offset="1" stop-color="#09b4be"/>
    </linearGradient>
    <clipPath id="clippath">
      <path class="cls-1" d="M113.75,56.62s71.74-45.59,186.55-19.53l-24.5,23.27,20.57,2.34s-7.52,25.52-30.44,56.03c-29.98,39.92-83.47,87.24-152.19,85.63V56.62Z"/>
    </clipPath>
  </defs>
  <path class="cls-5" d="M113.75,56.62s71.74-45.59,186.55-19.53l-24.5,23.27,20.57,2.34s-7.52,25.52-30.44,56.03c-29.98,39.92-83.47,87.24-152.19,85.63V56.62Z"/>
  <path class="cls-4" d="M335.67,12.7l-49.5,44.15,16.56,1.67s-5.18,25.42-38.47,70.74c-.41.56-22.91,27.43-50.84,47.16,0,0-19.82,14.08-46.04,23.76-15.49,5.72-32.84,9.34-49.82,9.07-.01,0,.67.03.04,0-4.75-.23-41.68-3.29-15.5-31.66,0,0-14.89,11.73-13.55,20.63,0,.03,0,.05.01.08,0,0,.32,6.19,5.05,9.64.47.34,7.7,5.55,16.86,6.73,2.58.25,20.36,2.51,33.09.5.18-.03.36-.06.54-.09,0,0,118.27-11.09,182.58-144.94l11.95,9.82-2.95-67.26Z"/>
  <path class="cls-3" d="M342.88,51l9.98,5.07-.82,169.69s6.71,52.69-71.67,91.47c-13.91,6.88-30.44,17.35-46.96,25.2l-53.51-28.47s-3.72-2.51-9.82-6.05c-18.37-10.66-54.64-34.14-55.96-86.89,0-.16,26.59.01,26.59.01,0,0,1.56,34.25,22.83,48.26-.49,1.8.16-50.48.16-50.48l34.07-10.3.79,84.52,17.02,9.98-.13-102.83,35.31-22.31v124.81l17.67-9.33v-129.93s20.95-17.84,35.02-35.84v140.73s22.25-16.36,23.07-47.29c.65,2.13,0-136.31,0-136.31l3.44-6.38,13.58,12.6-.65-39.93Z"/>
  <g class="cls-9">
    <g>
      <path class="cls-2" d="M296.27,132.09c4.07-5.75,6.48-12.76,6.48-20.33,0-18.62-14.43-33.84-32.71-35.17-1.43-.19-2.87-.32-4.36-.32-3.06,0-6.01.43-8.82,1.22-3.15-6.87-10.07-11.66-18.13-11.66-4.49,0-8.61,1.51-11.95,4.01-8.36-10.37-21.16-17.02-35.52-17.02-22.47,0-41.12,16.25-44.89,37.64-1.2.77-2.36,1.6-3.45,2.51-2.8,1.79-5.07,4.3-6.59,7.26-3.86,5.66-6.13,12.5-6.13,19.87,0,14.7,8.99,27.28,21.76,32.6,4.45,2.28,9.48,3.59,14.83,3.59,3.06,0,6.01-.43,8.82-1.22,3.15,6.88,10.07,11.66,18.13,11.66,5.33,0,10.17-2.11,13.74-5.51,4.51,4.19,10.53,6.76,17.17,6.76,7.62,0,14.44-3.39,19.08-8.73,4.79,4,10.96,6.41,17.7,6.41,14.64,0,26.59-11.39,27.56-25.78,3.12-1.85,5.67-4.54,7.29-7.8Z"/>
      <path class="cls-1" d="M270.03,76.59c-1.43-.19-2.87-.32-4.36-.32-3.06,0-6.01.43-8.82,1.22-3.15-6.87-10.07-11.66-18.13-11.66-2.26,0-4.43.38-6.45,1.08,3.53,2.67,6.43,6.21,8.14,10.2.73,1.72,1.47,3.47,1.77,5.32.43,2.68-.08,3.71,3.31,4.04,3.67.35,7.02.79,10.38,2.42,7.33,3.56,11.73,10.63,13.34,18.55.76,3.73,1.45,8.21.03,11.88-1.96,5.02-4.24,8.94-4.95,14.45-.98,7.63-8.5,9.88-15.05,10.12-5.07.18-8.7,1.26-13.35,3.21-4.25,1.79-8.26,2.61-12.86,2.08-4.25-.49-6.79-4.01-10.46-5.7-2.59-1.19-6.66.74-9.31,1.19-1.67.28-3.46.41-5.15.33-5.51-.25-12.44-2.06-14.96-7.42-11.74,7.12-25.86,2.66-33.51-8.58-4.51-6.61-7.69-14.84-8.42-22.83-.38-4.21-.5-8.49,1.09-12.5.05-.12.1-.24.15-.36-2.58,1.76-4.7,4.13-6.14,6.92-3.86,5.66-6.13,12.5-6.13,19.87,0,14.7,8.99,27.28,21.76,32.6,4.45,2.28,9.48,3.59,14.83,3.59,3.06,0,6.01-.43,8.82-1.22,3.15,6.88,10.07,11.66,18.13,11.66,5.33,0,10.17-2.11,13.74-5.51,4.51,4.19,10.53,6.76,17.17,6.76,7.62,0,14.44-3.39,19.08-8.73,4.79,4,10.96,6.41,17.7,6.41,14.64,0,26.59-11.39,27.56-25.78,3.12-1.85,5.67-4.54,7.29-7.8,4.07-5.75,6.48-12.76,6.48-20.33,0-18.62-14.43-33.84-32.71-35.17Z"/>
      <g>
        <path class="cls-6" d="M283.74,87.52c0-.59-.48-1.07-1.07-1.07s-1.07.48-1.07,1.07v4.87c0,.59.48,1.07,1.07,1.07s1.07-.48,1.07-1.07v-4.87Z"/>
        <path class="cls-6" d="M154.32,153.77v-38.58l23.39-13.13c.34-.19.55-.54.55-.93v-28.35s-.02-.07-.02-.1c2.4-.49,4.21-2.61,4.21-5.15,0-2.9-2.36-5.25-5.25-5.25s-5.26,2.35-5.26,5.25c0,2.54,1.81,4.66,4.21,5.15,0,.04-.02.07-.02.1v27.73l-23.39,13.13c-.34.19-.55.55-.55.93v38.24c.7.35,1.41.67,2.14.98ZM174.07,67.52c0-1.72,1.4-3.12,3.12-3.12s3.12,1.4,3.12,3.12-1.4,3.12-3.12,3.12-3.12-1.4-3.12-3.12Z"/>
        <path class="cls-6" d="M240.98,161.1c0-.59-.48-1.07-1.07-1.07s-1.07.48-1.07,1.07v2.45c.74-.51,1.45-1.05,2.14-1.64v-.81Z"/>
        <path class="cls-6" d="M255.61,117.4l23.39-13.13c.34-.19.55-.55.55-.93v-24.71c-.7-.26-1.42-.47-2.13-.69v24.77l-23.39,13.13c-.34.19-.55.55-.55.93v47.7c.7.21,1.42.39,2.14.54v-47.62Z"/>
        <path class="cls-6" d="M282.67,93.99c-.59,0-1.07.48-1.07,1.07v2.77c0,.59.48,1.06,1.07,1.06s1.07-.48,1.07-1.06v-2.77c0-.59-.48-1.07-1.07-1.07Z"/>
        <path class="cls-6" d="M157.62,67.72c-1.16,1.27-2.26,2.6-3.28,4,1.7-.66,2.96-2.16,3.28-4Z"/>
        <path class="cls-6" d="M157.71,99.79c0-2.53-1.8-4.65-4.18-5.15v-21.76c-.76,1.13-1.48,2.3-2.14,3.5v18.26c-2.39.49-4.18,2.61-4.18,5.14,0,2.9,2.36,5.26,5.25,5.26s5.25-2.36,5.25-5.26ZM149.33,99.79c0-1.72,1.4-3.12,3.12-3.12s3.12,1.4,3.12,3.12-1.4,3.12-3.12,3.12-3.12-1.4-3.12-3.12Z"/>
        <path class="cls-6" d="M190.43,114.82c0,2.9,2.36,5.26,5.26,5.26s5.25-2.36,5.25-5.26c0-2.53-1.8-4.65-4.19-5.14v-56.53c-.7-.08-1.42-.14-2.14-.2v56.73c-2.39.5-4.19,2.61-4.19,5.14ZM195.68,111.7c1.72,0,3.12,1.4,3.12,3.12s-1.4,3.12-3.12,3.12-3.12-1.4-3.12-3.12,1.4-3.12,3.12-3.12Z"/>
        <path class="cls-6" d="M222.3,92.11v2.77c0,.59.48,1.07,1.07,1.07s1.07-.48,1.07-1.07v-2.77c0-.59-.48-1.07-1.07-1.07s-1.07.48-1.07,1.07Z"/>
        <path class="cls-6" d="M224.44,97.93c0-.59-.48-1.06-1.07-1.06s-1.07.48-1.07,1.06v4.87c0,.59.48,1.07,1.07,1.07s1.07-.48,1.07-1.07v-4.87Z"/>
        <path class="cls-6" d="M223.37,104.4c-.59,0-1.07.48-1.07,1.07v2.77c0,.59.48,1.07,1.07,1.07s1.07-.48,1.07-1.07v-2.77c0-.59-.48-1.07-1.07-1.07Z"/>
        <path class="cls-6" d="M245.66,121.52v39.2c.69.48,1.4.92,2.14,1.34v-40.54c2.38-.5,4.18-2.61,4.18-5.14,0-2.9-2.36-5.25-5.25-5.25s-5.25,2.36-5.25,5.25c0,2.53,1.8,4.65,4.19,5.14ZM246.73,113.26c1.72,0,3.12,1.4,3.12,3.12s-1.4,3.12-3.12,3.12-3.12-1.4-3.12-3.12,1.4-3.12,3.12-3.12Z"/>
        <path class="cls-6" d="M210.72,62.26c0,2.53,1.8,4.65,4.19,5.15v-.96c0-.59.48-1.07,1.07-1.07-1.72,0-3.12-1.4-3.12-3.12,0-1.3.81-2.42,1.95-2.88-.69-.42-1.39-.81-2.1-1.19-1.2.97-1.99,2.43-1.99,4.08Z"/>
        <path class="cls-6" d="M217.04,66.45v.96c1.87-.39,3.35-1.77,3.92-3.57-.61-.52-1.23-1.03-1.87-1.52-.03,1.7-1.41,3.07-3.11,3.07.59,0,1.07.47,1.07,1.07Z"/>
        <path class="cls-6" d="M214.91,67.41v47.11c0,.39.21.74.55.93l23.39,13.13v29.67c0,.59.48,1.07,1.07,1.07s1.07-.48,1.07-1.07v-30.29c0-.38-.21-.74-.55-.93l-23.39-13.13v-46.48c-.35.07-.7.11-1.07.11s-.72-.04-1.07-.11Z"/>
        <path class="cls-6" d="M137.62,109.97c0-2.46-1.69-4.5-3.97-5.08-.07.16-.14.33-.21.49v.4c0,.42-.25.77-.6.95-.02.05-.05.11-.07.16,1.53.2,2.72,1.5,2.72,3.08,0,1.72-1.4,3.12-3.12,3.12-.5,0-.96-.13-1.38-.34-.15.71-.29,1.42-.4,2.15.55.21,1.15.32,1.78.32,2.9,0,5.25-2.36,5.25-5.25Z"/>
        <path class="cls-6" d="M277.72,152.83c.59,0,1.07-.48,1.07-1.07v-4.87c0-.59-.48-1.07-1.07-1.07s-1.07.48-1.07,1.07v4.87c0,.59.48,1.07,1.07,1.07Z"/>
        <path class="cls-6" d="M283.74,151.74c0,.7.14,1.36.39,1.97,1.48-2.14,2.66-4.5,3.49-7.02-2.23.61-3.88,2.63-3.88,5.05Z"/>
        <path class="cls-6" d="M276.66,157.59c0,.59.48,1.07,1.07,1.07s1.07-.48,1.07-1.07v-2.76c0-.59-.48-1.07-1.07-1.07s-1.07.48-1.07,1.07v2.76Z"/>
        <path class="cls-6" d="M277.72,140.39c-.59,0-1.07.48-1.07,1.07v2.76c0,.59.48,1.07,1.07,1.07s1.07-.48,1.07-1.07v-2.76c0-.59-.48-1.07-1.07-1.07Z"/>
        <path class="cls-6" d="M294.25,118.78c0-2.9-2.36-5.25-5.26-5.25s-5.25,2.36-5.25,5.25c0,2.53,1.8,4.65,4.18,5.15v21.82c.55-1.88.92-3.83,1.06-5.86.38-.23.72-.5,1.08-.75v-15.21c2.39-.5,4.19-2.61,4.19-5.15ZM288.99,121.9c-1.72,0-3.12-1.4-3.12-3.12s1.4-3.12,3.12-3.12,3.12,1.4,3.12,3.12-1.4,3.12-3.12,3.12Z"/>
        <path class="cls-6" d="M289.26,104.01v-19.94c-.69-.55-1.4-1.06-2.14-1.55v20.86l-23.39,13.13c-.34.19-.55.55-.55.93v28.35s.02.07.02.1c-2.4.49-4.21,2.61-4.21,5.15,0,2.9,2.36,5.25,5.25,5.25s5.26-2.35,5.26-5.25c0-2.54-1.81-4.66-4.21-5.15,0-.04.02-.06.02-.1v-27.72l23.39-13.13c.34-.19.55-.55.55-.93ZM267.37,151.05c0,1.72-1.4,3.12-3.12,3.12s-3.12-1.4-3.12-3.12,1.4-3.12,3.12-3.12,3.12,1.4,3.12,3.12Z"/>
        <path class="cls-6" d="M297.74,127.2v2.61c.66-1.09,1.23-2.23,1.77-3.4-.19-.17-.43-.28-.7-.28-.59,0-1.07.48-1.07,1.07Z"/>
        <path class="cls-6" d="M294.94,89.67v9.6c-2.39.49-4.19,2.61-4.19,5.14,0,2.9,2.36,5.26,5.25,5.26s5.25-2.36,5.25-5.26c0-2.53-1.8-4.65-4.19-5.14v-6.67c-.66-1.01-1.38-1.99-2.14-2.93ZM299.13,104.42c0,1.72-1.4,3.12-3.12,3.12s-3.12-1.4-3.12-3.12,1.4-3.12,3.12-3.12,3.12,1.4,3.12,3.12Z"/>
        <path class="cls-6" d="M139.69,125.73c0-.38-.21-.74-.55-.93l-8.93-5.01c0,.1-.01.2-.01.31,0,.74.04,1.46.08,2.18l7.26,4.08v15.27c.68.87,1.39,1.72,2.14,2.52v-18.42Z"/>
        <path class="cls-6" d="M283.74,81.7c0-.59-.48-1.07-1.07-1.07s-1.07.48-1.07,1.07v2.76c0,.59.48,1.07,1.07,1.07s1.07-.48,1.07-1.07v-2.76Z"/>
        <path class="cls-6" d="M187.87,155.75c0-2.53-1.8-4.65-4.18-5.15v-26.45c2.39-.49,4.18-2.61,4.18-5.15,0-2.9-2.36-5.25-5.25-5.25s-5.26,2.36-5.26,5.25c0,2.53,1.8,4.65,4.18,5.15v26.45c-2.39.5-4.18,2.61-4.18,5.15,0,2.9,2.36,5.25,5.26,5.25s5.25-2.36,5.25-5.25ZM179.5,119.01c0-1.72,1.4-3.12,3.12-3.12s3.12,1.4,3.12,3.12-1.4,3.12-3.12,3.12-3.12-1.4-3.12-3.12ZM179.5,155.75c0-1.72,1.4-3.12,3.12-3.12s3.12,1.4,3.12,3.12-1.4,3.12-3.12,3.12-3.12-1.4-3.12-3.12Z"/>
        <path class="cls-6" d="M145.44,108.9c-2.9,0-5.25,2.36-5.25,5.25,0,2.53,1.8,4.65,4.19,5.14v29.03c.69.52,1.41,1.01,2.14,1.48v-30.51c2.39-.49,4.18-2.61,4.18-5.14,0-2.9-2.36-5.25-5.25-5.25ZM145.44,117.28c-1.72,0-3.12-1.4-3.12-3.12s1.4-3.12,3.12-3.12,3.12,1.4,3.12,3.12-1.4,3.12-3.12,3.12Z"/>
        <path class="cls-6" d="M260.07,135.26c-.59,0-1.07.48-1.07,1.07v2.76c0,.59.48,1.07,1.07,1.07s1.07-.48,1.07-1.07v-2.76c0-.59-.48-1.07-1.07-1.07Z"/>
        <path class="cls-6" d="M207.48,161.21c.13.12.28.23.42.35-.26-2.26-1.93-4.1-4.13-4.56v-22.68c2.39-.5,4.19-2.61,4.19-5.14,0-2.9-2.36-5.26-5.25-5.26s-5.26,2.36-5.26,5.26c0,2.53,1.8,4.65,4.19,5.14v22.68c-2.39.5-4.19,2.61-4.19,5.14,0,1.51.65,2.86,1.67,3.82.87-.24,1.71-.54,2.52-.9-1.2-.44-2.06-1.58-2.06-2.92,0-1.72,1.4-3.12,3.12-3.12s3.12,1.4,3.12,3.12c0,.17-.02.34-.05.5.59-.45,1.17-.93,1.71-1.44ZM199.58,129.19c0-1.72,1.4-3.12,3.12-3.12s3.12,1.4,3.12,3.12-1.4,3.12-3.12,3.12-3.12-1.4-3.12-3.12Z"/>
        <path class="cls-6" d="M261.14,122.97c0-.59-.48-1.07-1.07-1.07s-1.07.47-1.07,1.07v2.77c0,.59.48,1.07,1.07,1.07s1.07-.48,1.07-1.07v-2.77Z"/>
        <path class="cls-6" d="M261.14,128.41c0-.59-.48-1.07-1.07-1.07s-1.07.48-1.07,1.07v4.87c0,.59.48,1.07,1.07,1.07s1.07-.48,1.07-1.07v-4.87Z"/>
        <path class="cls-6" d="M231.62,145.66c-.59,0-1.07.48-1.07,1.07v2.77c0,.59.48,1.07,1.07,1.07s1.07-.48,1.07-1.07v-2.77c0-.59-.48-1.07-1.07-1.07Z"/>
        <path class="cls-6" d="M182.45,85.3c0-.59-.48-1.07-1.07-1.07s-1.07.48-1.07,1.07v4.87c0,.59.48,1.07,1.07,1.07s1.07-.48,1.07-1.07v-4.87Z"/>
        <path class="cls-6" d="M159.24,136.44c0-.59-.48-1.07-1.07-1.07s-1.07.48-1.07,1.07v3.82c0,.59.48,1.07,1.07,1.07s1.07-.48,1.07-1.07v-3.82Z"/>
        <path class="cls-6" d="M163.72,78.18c.59,0,1.07-.48,1.07-1.07v-2.76c0-.59-.48-1.07-1.07-1.07s-1.07.48-1.07,1.07v2.76c0,.59.48,1.07,1.07,1.07Z"/>
        <path class="cls-6" d="M182.45,79.48c0-.59-.48-1.07-1.07-1.07s-1.07.47-1.07,1.07v2.77c0,.59.48,1.07,1.07,1.07s1.07-.48,1.07-1.07v-2.77Z"/>
        <path class="cls-6" d="M181.37,91.77c-.59,0-1.07.48-1.07,1.07v2.77c0,.59.48,1.06,1.07,1.06s1.07-.47,1.07-1.06v-2.77c0-.59-.48-1.07-1.07-1.07Z"/>
        <path class="cls-6" d="M163.72,65.74c-.59,0-1.07.48-1.07,1.07v4.87c0,.59.48,1.07,1.07,1.07s1.07-.48,1.07-1.07v-4.87c0-.59-.48-1.07-1.07-1.07Z"/>
        <path class="cls-6" d="M188.87,66.14c-.59,0-1.07.47-1.07,1.07v2.89c0,.59.48,1.07,1.07,1.07s1.07-.48,1.07-1.07v-2.89c0-.59-.48-1.07-1.07-1.07Z"/>
        <path class="cls-6" d="M164.79,61.3c-.74.52-1.44,1.09-2.14,1.66v.79c0,.59.48,1.07,1.07,1.07s1.07-.48,1.07-1.07v-2.45Z"/>
        <path class="cls-6" d="M159.24,154.91c0-.59-.48-1.07-1.07-1.07-.55,0-.99.43-1.05.97.7.22,1.4.41,2.12.58v-.47Z"/>
        <path class="cls-6" d="M189.94,103.25v-30.29c0-.59-.48-1.07-1.07-1.07s-1.07.47-1.07,1.07v29.67l-23.39,13.13c-.34.19-.55.54-.55.93v39.45c.7.06,1.42.1,2.14.12v-38.95l23.39-13.13c.34-.19.55-.55.55-.93Z"/>
        <path class="cls-6" d="M193.94,150.97c0-.59-.48-1.07-1.07-1.07s-1.07.48-1.07,1.07v2.76c0,.59.48,1.07,1.07,1.07s1.07-.48,1.07-1.07v-2.76Z"/>
        <path class="cls-6" d="M212.9,162.17c0,.59.48,1.07,1.07,1.07s1.07-.48,1.07-1.07v-4.87c0-.59-.48-1.07-1.07-1.07s-1.07.48-1.07,1.07v4.87Z"/>
        <path class="cls-6" d="M158.17,142.89c-.59,0-1.07.48-1.07,1.07v6.72c0,.59.48,1.07,1.07,1.07s1.07-.48,1.07-1.07v-6.72c0-.59-.48-1.07-1.07-1.07Z"/>
        <path class="cls-6" d="M228.41,112.19c0,2.9,2.36,5.25,5.26,5.25s5.25-2.36,5.25-5.25c0-2.53-1.8-4.65-4.18-5.14v-26.45c2.39-.5,4.18-2.62,4.18-5.15,0-2.9-2.35-5.25-5.25-5.25s-5.26,2.36-5.26,5.25c0,2.53,1.8,4.65,4.18,5.14v26.45c-2.39.49-4.18,2.61-4.18,5.14ZM236.78,112.19c0,1.72-1.4,3.12-3.12,3.12s-3.12-1.4-3.12-3.12,1.4-3.12,3.12-3.12,3.12,1.4,3.12,3.12ZM230.54,75.45c0-1.72,1.4-3.12,3.12-3.12s3.12,1.4,3.12,3.12-1.4,3.12-3.12,3.12-3.12-1.4-3.12-3.12Z"/>
        <path class="cls-6" d="M189.94,58.93c0-.59-.48-1.07-1.07-1.07s-1.07.48-1.07,1.07v5.09c0,.59.48,1.07,1.07,1.07s1.07-.48,1.07-1.07v-5.09Z"/>
        <path class="cls-6" d="M172.32,134.34c.59,0,1.07-.48,1.07-1.07v-4.87c0-.59-.48-1.06-1.07-1.06s-1.07.48-1.07,1.06v4.87c0,.59.48,1.07,1.07,1.07Z"/>
        <path class="cls-6" d="M171.25,139.09c0,.59.48,1.07,1.07,1.07s1.07-.48,1.07-1.07v-2.77c0-.59-.48-1.07-1.07-1.07s-1.07.48-1.07,1.07v2.77Z"/>
        <path class="cls-6" d="M172.32,121.9c-.59,0-1.07.48-1.07,1.07v2.77c0,.59.48,1.07,1.07,1.07s1.07-.48,1.07-1.07v-2.77c0-.59-.48-1.07-1.07-1.07Z"/>
        <path class="cls-6" d="M244.99,83.29c0-.59-.48-1.07-1.07-1.07s-1.07.48-1.07,1.07v4.86c0,.59.48,1.07,1.07,1.07s1.07-.48,1.07-1.07v-4.86Z"/>
        <path class="cls-6" d="M243.92,89.76c-.59,0-1.07.48-1.07,1.06v2.77c0,.59.48,1.07,1.07,1.07s1.07-.48,1.07-1.07v-2.77c0-.59-.48-1.06-1.07-1.06Z"/>
        <path class="cls-6" d="M244.99,77.46c0-.59-.48-1.07-1.07-1.07s-1.07.48-1.07,1.07v2.77c0,.59.48,1.07,1.07,1.07s1.07-.48,1.07-1.07v-2.77Z"/>
        <path class="cls-6" d="M232.69,138.81c0-.59-.48-1.07-1.07-1.07s-1.07.48-1.07,1.07v4.86c0,.59.48,1.07,1.07,1.07s1.07-.48,1.07-1.07v-4.86Z"/>
        <path class="cls-6" d="M213.97,155.7c.59,0,1.07-.48,1.07-1.07v-2.76c0-.59-.48-1.07-1.07-1.07s-1.07.48-1.07,1.07v2.76c0,.59.48,1.07,1.07,1.07Z"/>
        <path class="cls-6" d="M263.95,79.33c0,.59.48,1.07,1.07,1.07s1.07-.48,1.07-1.07v-2.76c0-.1-.03-.2-.06-.29-.12,0-.23-.01-.35-.01-.57,0-1.12.03-1.68.06-.02.08-.05.16-.05.24v2.76Z"/>
        <path class="cls-6" d="M232.69,161.46c0-2.54-1.81-4.66-4.21-5.15,0-.03.02-.06.02-.1v-28.35c0-.38-.2-.74-.54-.93l-23.39-13.13v-53.6c0-.59-.48-1.07-1.07-1.07s-1.07.48-1.07,1.07v54.23c0,.39.21.74.55.93l23.39,13.13v27.72s.02.07.02.1c-2.4.49-4.21,2.61-4.21,5.15,0,2.9,2.36,5.25,5.26,5.25s5.26-2.35,5.26-5.25ZM224.32,161.46c0-1.72,1.4-3.12,3.12-3.12s3.12,1.4,3.12,3.12-1.4,3.12-3.12,3.12-3.12-1.4-3.12-3.12Z"/>
        <path class="cls-6" d="M187.8,53.24v2.89c0,.59.48,1.07,1.07,1.07s1.07-.48,1.07-1.07v-2.89c0-.13-.03-.25-.07-.36-.67.02-1.34.04-2.01.09-.02.09-.05.18-.05.27Z"/>
        <path class="cls-6" d="M248.49,69.05c0,2.53,1.8,4.65,4.19,5.14v22.68c-2.39.5-4.19,2.61-4.19,5.15,0,2.9,2.36,5.25,5.26,5.25s5.25-2.36,5.25-5.25c0-2.53-1.8-4.65-4.19-5.15v-22.68s.07-.02.1-.03c-.52-.72-1.08-1.4-1.68-2.04-1.21-.2-2.17-1.09-2.49-2.26-.7-.53-1.43-1.01-2.19-1.44-.02.21-.06.42-.06.63ZM256.87,102.01c0,1.72-1.4,3.12-3.12,3.12s-3.12-1.4-3.12-3.12,1.4-3.12,3.12-3.12,3.12,1.4,3.12,3.12Z"/>
        <path class="cls-6" d="M193.94,137.61c0-.59-.48-1.07-1.07-1.07s-1.07.48-1.07,1.07v2.77c0,.59.48,1.07,1.07,1.07s1.07-.48,1.07-1.07v-2.77Z"/>
        <path class="cls-6" d="M192.88,141.98c-.59,0-1.07.48-1.07,1.07v4.86c0,.59.48,1.07,1.07,1.07s1.07-.48,1.07-1.07v-4.86c0-.59-.48-1.07-1.07-1.07Z"/>
        <path class="cls-6" d="M232.69,133.38c0-.59-.48-1.07-1.07-1.07s-1.07.47-1.07,1.07v2.77c0,.59.48,1.07,1.07,1.07s1.07-.48,1.07-1.07v-2.77Z"/>
        <path class="cls-6" d="M203.5,58.5c.59,0,1.07-.48,1.07-1.07v-2.63c-.68-.21-1.38-.39-2.08-.57-.03.1-.06.2-.06.31v2.89c0,.59.48,1.07,1.07,1.07Z"/>
        <path class="cls-6" d="M210.29,80.52c0-.59-.48-1.07-1.07-1.07s-1.07.48-1.07,1.07v6.72c0,.59.48,1.07,1.07,1.07s1.07-.48,1.07-1.07v-6.72Z"/>
        <path class="cls-6" d="M209.22,89.87c-.59,0-1.07.48-1.07,1.07v3.83c0,.59.48,1.07,1.07,1.07s1.07-.48,1.07-1.07v-3.83c0-.59-.48-1.07-1.07-1.07Z"/>
        <path class="cls-6" d="M210.29,72.46c0-.59-.48-1.07-1.07-1.07s-1.07.48-1.07,1.07v3.83c0,.59.48,1.07,1.07,1.07s1.07-.48,1.07-1.07v-3.83Z"/>
      </g>
    </g>
  </g>
  <g>
    <g>
      <path class="cls-8" d="M22.44,376.76h14.16c8.06,0,12.49,4.29,12.49,11.32,0,5.63-2.8,8.37-5.37,9.29,3.28,1.3,6.71,4.19,6.71,10.9,0,8.48-5.75,13.13-14.01,13.13h-13.98v-44.64ZM34.6,394.58c5.17,0,6.52-1.92,6.52-5.77s-2.13-5.7-6.23-5.7h-4.3v11.47h4.01ZM30.59,415.17h4.96c4.15,0,6.54-2.04,6.54-7.06,0-4.6-1.99-7.31-7.45-7.31h-4.06v14.36Z"/>
      <path class="cls-8" d="M63.14,406.38c0,4.33.55,9.16,5.1,9.16,4.09,0,4.61-3.34,4.76-4.5h7.85c-.13,1.07-.93,11.02-12.72,11.02s-13.13-9.31-13.13-17.94c0-10.83,4.28-17.45,13.29-17.45,10.31,0,12.84,7.42,12.84,16.33,0,1.19-.06,2.8-.13,3.38h-17.85ZM73.03,400.68c0-3.32-.4-7.54-4.76-7.54-4.7,0-4.99,5.08-5,7.54h9.76Z"/>
      <path class="cls-8" d="M87.85,421.41v-27.69h-4.14v-6.46h4.14v-3.33c0-5.7,2.69-9.84,9.74-9.84,1.24,0,2.64.19,3.38.39v6.6c-.62-.13-1.27-.21-1.94-.21-2.36,0-2.98,1.27-2.98,3.62v2.77h5.04v6.46h-5.04v27.69h-8.2Z"/>
      <path class="cls-8" d="M129.6,404.04c0,12.39-4.73,18.02-13.46,18.02s-13.24-5.37-13.24-17.83,5.29-17.56,13.67-17.56,13.03,5.94,13.03,17.37ZM111.18,404.17c0,7.33,1.28,11.3,5.19,11.3,3.69,0,4.95-3.93,4.95-11.2s-1.3-10.97-5.01-10.97-5.13,3.54-5.13,10.87Z"/>
      <path class="cls-8" d="M135.19,398.83c0-5.61,0-9.14-.07-11.57h7.83c.07.59.2,2.01.2,5.62,1.34-3.87,4.48-6.19,9.31-6.2v8.84c-5.81-.13-9.07,1.51-9.07,7.97v17.92h-8.2v-22.58Z"/>
      <path class="cls-8" d="M163.29,406.38c0,4.33.55,9.16,5.1,9.16,4.09,0,4.61-3.34,4.75-4.5h7.85c-.13,1.07-.93,11.02-12.72,11.02s-13.13-9.31-13.13-17.94c0-10.83,4.28-17.45,13.29-17.45,10.31,0,12.84,7.42,12.84,16.33,0,1.19-.06,2.8-.13,3.38h-17.85ZM173.18,400.68c0-3.32-.4-7.54-4.76-7.54-4.7,0-4.99,5.08-5,7.54h9.76Z"/>
    </g>
    <g>
      <path class="cls-7" d="M199.99,377.5h4.83v18.44h18.21v-18.44h4.86v43.82h-4.86v-20.68h-18.21v20.68h-4.83v-43.82Z"/>
      <path class="cls-7" d="M239.4,406.23c-.04,6.44,2.41,11.3,7.46,11.3,4.6,0,6.02-3.63,6.56-5.32h4.61c-.94,4.01-3.73,9.7-11.4,9.7-8.96,0-12-7.92-12-16.8,0-7.9,3.45-16.62,12.26-16.62s11.58,7.87,11.58,15.29c0,.18-.02,2.24-.04,2.44h-19.04ZM253.85,402.38c-.15-5.47-2.1-9.6-7.07-9.6-5.67,0-7.01,5.77-7.27,9.6h14.34Z"/>
      <path class="cls-7" d="M284.71,414.17c0,2.22.19,5.44.43,7.14h-4.26c-.19-1.12-.39-2.86-.42-4.97-1.1,3.24-3.99,5.54-8.66,5.54-6.99,0-9.13-5.3-9.13-9.76,0-4.84,2.78-10.22,13.03-10.22h4.38v-3.12c0-3.05-.77-6.21-5.62-6.21-4.17,0-5.61,2.15-6.09,5.7h-4.57c.43-5.39,3.19-9.78,10.81-9.78,5.98,0,10.09,2.71,10.09,10.04v15.64ZM280.23,405.71h-4.53c-6.93,0-8.24,3.16-8.24,6.1,0,3.14,1.69,5.73,5.3,5.73,5.62,0,7.47-4.26,7.47-11.17v-.66Z"/>
      <path class="cls-7" d="M292.96,421.31v-46.22h4.67v46.22h-4.67Z"/>
      <path class="cls-7" d="M302.17,389.13h4.59v-9.35h4.65v9.35h5.77v4.32h-5.77v20.14c0,2.69.6,3.83,3.04,3.83.79,0,1.59-.08,2.22-.21v3.95c-1.11.45-2.75.55-3.74.55-4.16,0-6.17-1.79-6.17-7.13v-21.13h-4.59v-4.32Z"/>
      <path class="cls-7" d="M326.59,375.09v18.67c1.39-3.09,4.22-5.26,8.53-5.26s9,2.44,9,11.54v21.27h-4.63v-20.37c0-4.92-1.72-7.84-5.9-7.84-4.59,0-7,3.44-7,9.85v18.36h-4.67v-46.22h4.67Z"/>
      <path class="cls-7" d="M374.03,411.05c-1.16,6.29-4.7,10.88-11.51,10.88-8.05,0-12.1-6-12.1-16.76,0-9.27,4.16-16.67,12.39-16.67,7.62,0,10.78,5.91,11.18,11.23h-4.73c-.55-3.65-2.36-6.91-6.56-6.91-5.21,0-7.47,5.12-7.47,12.25,0,8.25,2.65,12.56,7.42,12.56,3.96,0,5.67-2.76,6.67-6.58h4.71Z"/>
      <path class="cls-7" d="M400.2,414.17c0,2.22.19,5.44.43,7.14h-4.26c-.19-1.12-.39-2.86-.42-4.97-1.1,3.24-3.99,5.54-8.66,5.54-6.99,0-9.13-5.3-9.13-9.76,0-4.84,2.78-10.22,13.03-10.22h4.38v-3.12c0-3.05-.77-6.21-5.62-6.21-4.17,0-5.61,2.15-6.09,5.7h-4.57c.43-5.39,3.19-9.78,10.81-9.78,5.98,0,10.09,2.71,10.09,10.04v15.64ZM395.72,405.71h-4.53c-6.93,0-8.24,3.16-8.24,6.1,0,3.14,1.69,5.73,5.3,5.73,5.62,0,7.47-4.26,7.47-11.17v-.66Z"/>
      <path class="cls-7" d="M408.45,400.06c0-5.13-.04-9.33-.11-10.92h4.59c.1,1.52.12,3.57.12,6.53,1.34-3.99,4.5-7.04,9.26-7.12v5.48c-6.44.26-9.19,4.52-9.19,11.46v15.83h-4.67v-21.26Z"/>
      <path class="cls-7" d="M429.64,406.23c-.04,6.44,2.41,11.3,7.46,11.3,4.6,0,6.02-3.63,6.56-5.32h4.61c-.94,4.01-3.73,9.7-11.4,9.7-8.95,0-12-7.92-12-16.8,0-7.9,3.45-16.62,12.26-16.62s11.58,7.87,11.58,15.29c0,.18-.02,2.24-.04,2.44h-19.04ZM444.09,402.38c-.15-5.47-2.1-9.6-7.07-9.6-5.67,0-7.01,5.77-7.27,9.6h14.34Z"/>
    </g>
    <g>
      <path class="cls-7" d="M24.49,437.39v16.79h-2.08v-16.79h2.08Z"/>
      <path class="cls-7" d="M27.86,445.71c0-2.57-.02-3.33-.05-3.86h1.98c.03.24.09,1.42.07,1.93.51-1.11,1.62-2.18,3.64-2.18,2.28,0,3.93,1.29,3.93,4.62v7.96h-2.03v-7.64c0-1.79-.61-3.17-2.44-3.17-2.2,0-3.08,1.63-3.08,4.22v6.59h-2.01v-8.47Z"/>
      <path class="cls-7" d="M39.08,441.85h1.98v-3.58h2v3.58h2.49v1.66h-2.49v7.72c0,1.03.26,1.47,1.31,1.47.34,0,.69-.03.96-.08v1.51c-.48.17-1.18.21-1.61.21-1.79,0-2.66-.68-2.66-2.73v-8.1h-1.98v-1.66Z"/>
      <path class="cls-7" d="M48.72,448.4c-.02,2.47,1.04,4.33,3.21,4.33,1.98,0,2.59-1.39,2.83-2.04h1.99c-.41,1.54-1.61,3.72-4.91,3.72-3.86,0-5.17-3.04-5.17-6.44,0-3.03,1.49-6.37,5.28-6.37s4.99,3.02,4.99,5.86c0,.07,0,.86-.02.94h-8.2ZM54.94,446.92c-.06-2.1-.9-3.68-3.04-3.68-2.44,0-3.02,2.21-3.13,3.68h6.18Z"/>
      <path class="cls-7" d="M59.51,454.18v-17.71h2.01v17.71h-2.01Z"/>
      <path class="cls-7" d="M64.94,454.18v-17.71h2.01v17.71h-2.01Z"/>
      <path class="cls-7" d="M70.36,436.47h2.01v2.62h-2.01v-2.62ZM70.36,441.85h2.01v12.33h-2.01v-12.33Z"/>
      <path class="cls-7" d="M85.32,453.25c0,3.84-1.54,6.02-5.29,6.02s-4.69-1.93-4.87-3.69h2c.27,1.37,1.38,2.04,2.95,2.04,2.65,0,3.25-1.73,3.25-4.42v-1.01c-.63,1.38-1.72,2.03-3.62,2.03-2.9,0-4.78-2.42-4.78-6.24s2.22-6.36,5.06-6.36c1.95,0,2.96.8,3.28,1.75,0-.53.07-1.23.1-1.51h1.97c-.02.59-.05,1.9-.05,3.58v7.82ZM77.05,447.94c0,2.86,1.21,4.51,3.17,4.51,2.36,0,3.18-1.47,3.18-4.57s-.68-4.52-3.08-4.52c-2.04,0-3.27,1.71-3.27,4.58Z"/>
      <path class="cls-7" d="M89.93,448.4c-.02,2.47,1.04,4.33,3.21,4.33,1.98,0,2.59-1.39,2.83-2.04h1.99c-.41,1.54-1.61,3.72-4.91,3.72-3.86,0-5.17-3.04-5.17-6.44,0-3.03,1.49-6.37,5.28-6.37s4.99,3.02,4.99,5.86c0,.07,0,.86-.02.94h-8.2ZM96.15,446.92c-.06-2.1-.9-3.68-3.04-3.68-2.44,0-3.02,2.21-3.13,3.68h6.18Z"/>
      <path class="cls-7" d="M100.67,445.71c0-2.57-.02-3.33-.05-3.86h1.98c.03.24.09,1.42.07,1.93.51-1.11,1.62-2.18,3.63-2.18,2.28,0,3.93,1.29,3.93,4.62v7.96h-2.03v-7.64c0-1.79-.61-3.17-2.44-3.17-2.2,0-3.08,1.63-3.08,4.22v6.59h-2.01v-8.47Z"/>
      <path class="cls-7" d="M111.89,441.85h1.98v-3.58h2v3.58h2.49v1.66h-2.49v7.72c0,1.03.26,1.47,1.31,1.47.34,0,.69-.03.96-.08v1.51c-.48.17-1.18.21-1.61.21-1.79,0-2.66-.68-2.66-2.73v-8.1h-1.98v-1.66Z"/>
      <path class="cls-7" d="M139.72,445.68c0,4.82-2.24,8.74-7.16,8.74-4.64,0-6.98-3.7-6.98-8.73,0-4.4,2.28-8.54,7.17-8.54,4.63,0,6.96,3.68,6.96,8.53ZM127.75,445.66c0,3.94,1.59,7.01,4.92,7.01s4.92-3.03,4.92-6.97-1.51-6.79-4.91-6.79-4.93,3.03-4.93,6.75Z"/>
      <path class="cls-7" d="M144.42,452.7v6.37h-2v-13.59c0-1.69,0-2.87-.04-3.63h1.98c.03.42.06,1.3.07,1.99.6-1.26,1.81-2.23,3.84-2.23,2.68,0,4.6,2.13,4.6,6.21s-2.21,6.57-5.1,6.57c-1.79,0-2.81-.71-3.34-1.69ZM150.79,447.88c0-2.96-1.19-4.53-3.17-4.53-2.53,0-3.29,1.74-3.29,4.71,0,2.72.52,4.61,3.16,4.61,2.07,0,3.3-1.72,3.3-4.78Z"/>
      <path class="cls-7" d="M156.68,448.4c-.02,2.47,1.04,4.33,3.21,4.33,1.98,0,2.59-1.39,2.83-2.04h1.99c-.41,1.54-1.61,3.72-4.91,3.72-3.86,0-5.17-3.04-5.17-6.44,0-3.03,1.49-6.37,5.28-6.37s4.99,3.02,4.99,5.86c0,.07,0,.86-.02.94h-8.2ZM162.91,446.92c-.06-2.1-.9-3.68-3.04-3.68-2.44,0-3.02,2.21-3.13,3.68h6.18Z"/>
      <path class="cls-7" d="M167.43,446.04c0-1.97-.02-3.58-.05-4.19h1.98c.04.58.05,1.37.05,2.5.58-1.53,1.94-2.7,3.99-2.73v2.1c-2.77.1-3.96,1.73-3.96,4.39v6.07h-2.01v-8.15Z"/>
      <path class="cls-7" d="M183.67,451.45c0,.85.08,2.09.19,2.74h-1.83c-.08-.43-.17-1.1-.18-1.91-.47,1.24-1.72,2.12-3.73,2.12-3.01,0-3.94-2.03-3.94-3.74,0-1.86,1.2-3.92,5.61-3.92h1.89v-1.2c0-1.17-.33-2.38-2.42-2.38-1.79,0-2.42.82-2.62,2.18h-1.97c.18-2.06,1.38-3.75,4.66-3.75,2.58,0,4.35,1.04,4.35,3.85v5.99ZM181.74,448.2h-1.95c-2.99,0-3.55,1.21-3.55,2.34,0,1.2.73,2.2,2.28,2.2,2.42,0,3.22-1.63,3.22-4.28v-.25Z"/>
      <path class="cls-7" d="M185.24,441.85h1.98v-3.58h2v3.58h2.49v1.66h-2.49v7.72c0,1.03.26,1.47,1.31,1.47.34,0,.69-.03.96-.08v1.51c-.48.17-1.18.21-1.61.21-1.79,0-2.66-.68-2.66-2.73v-8.1h-1.98v-1.66Z"/>
      <path class="cls-7" d="M193.73,436.47h2.01v2.62h-2.01v-2.62ZM193.73,441.85h2.01v12.33h-2.01v-12.33Z"/>
      <path class="cls-7" d="M209.17,447.81c0,3.57-1.56,6.58-5.51,6.58s-5.35-3.13-5.35-6.52,1.78-6.27,5.5-6.27c3.49,0,5.35,2.66,5.35,6.21ZM200.39,447.85c0,2.84,1.16,4.86,3.39,4.86s3.3-1.97,3.3-4.89c0-2.68-1.12-4.54-3.37-4.54s-3.33,1.88-3.33,4.56Z"/>
      <path class="cls-7" d="M211.73,445.71c0-2.57-.02-3.33-.05-3.86h1.98c.03.24.09,1.42.07,1.93.51-1.11,1.62-2.18,3.63-2.18,2.28,0,3.93,1.29,3.93,4.62v7.96h-2.03v-7.64c0-1.79-.61-3.17-2.44-3.17-2.2,0-3.08,1.63-3.08,4.22v6.59h-2.01v-8.47Z"/>
      <path class="cls-7" d="M233.13,451.45c0,.85.08,2.09.19,2.74h-1.83c-.08-.43-.17-1.1-.18-1.91-.47,1.24-1.72,2.12-3.73,2.12-3.01,0-3.94-2.03-3.94-3.74,0-1.86,1.2-3.92,5.61-3.92h1.89v-1.2c0-1.17-.33-2.38-2.42-2.38-1.79,0-2.42.82-2.62,2.18h-1.97c.18-2.06,1.38-3.75,4.66-3.75,2.58,0,4.35,1.04,4.35,3.85v5.99ZM231.2,448.2h-1.95c-2.99,0-3.55,1.21-3.55,2.34,0,1.2.73,2.2,2.28,2.2,2.42,0,3.22-1.63,3.22-4.28v-.25Z"/>
      <path class="cls-7" d="M236.54,454.18v-17.71h2.01v17.71h-2.01Z"/>
      <path class="cls-7" d="M248.2,437.39h2.08v7.07h7.84v-7.07h2.09v16.79h-2.09v-7.93h-7.84v7.93h-2.08v-16.79Z"/>
      <path class="cls-7" d="M265.04,448.4c-.02,2.47,1.04,4.33,3.21,4.33,1.98,0,2.59-1.39,2.83-2.04h1.99c-.41,1.54-1.61,3.72-4.91,3.72-3.86,0-5.17-3.04-5.17-6.44,0-3.03,1.49-6.37,5.28-6.37s4.99,3.02,4.99,5.86c0,.07,0,.86-.02.94h-8.2ZM271.26,446.92c-.06-2.1-.91-3.68-3.04-3.68-2.44,0-3.02,2.21-3.13,3.68h6.18Z"/>
      <path class="cls-7" d="M284.41,451.45c0,.85.08,2.09.19,2.74h-1.83c-.08-.43-.17-1.1-.18-1.91-.47,1.24-1.72,2.12-3.73,2.12-3.01,0-3.94-2.03-3.94-3.74,0-1.86,1.2-3.92,5.62-3.92h1.89v-1.2c0-1.17-.33-2.38-2.42-2.38-1.79,0-2.42.82-2.62,2.18h-1.97c.18-2.06,1.38-3.75,4.66-3.75,2.58,0,4.35,1.04,4.35,3.85v5.99ZM282.48,448.2h-1.95c-2.99,0-3.55,1.21-3.55,2.34,0,1.2.73,2.2,2.28,2.2,2.42,0,3.22-1.63,3.22-4.28v-.25Z"/>
      <path class="cls-7" d="M287.83,454.18v-17.71h2.01v17.71h-2.01Z"/>
      <path class="cls-7" d="M291.65,441.85h1.98v-3.58h2v3.58h2.49v1.66h-2.49v7.72c0,1.03.26,1.47,1.31,1.47.34,0,.69-.03.96-.08v1.51c-.48.17-1.18.21-1.61.21-1.79,0-2.66-.68-2.66-2.73v-8.1h-1.98v-1.66Z"/>
      <path class="cls-7" d="M302.03,436.47v7.15c.6-1.19,1.82-2.02,3.67-2.02s3.88.94,3.88,4.42v8.15h-2v-7.81c0-1.88-.74-3.01-2.54-3.01-1.98,0-3.02,1.32-3.02,3.78v7.04h-2.01v-17.71h2.01Z"/>
      <path class="cls-7" d="M332.57,447.03c0-3.1.03-6.31.11-8.08h-.07c-.79,3.02-3.37,10.42-5.1,15.24h-1.94c-1.3-4.03-3.95-12.06-4.77-15.27h-.08c.13,1.95.19,5.69.19,8.58v6.69h-1.97v-16.79h3.13c1.75,4.97,4,11.83,4.58,14.14h.04c.33-1.61,3.03-9.14,4.86-14.14h3.06v16.79h-2.04v-7.15Z"/>
      <path class="cls-7" d="M346.72,451.45c0,.85.08,2.09.19,2.74h-1.83c-.08-.43-.17-1.1-.18-1.91-.47,1.24-1.72,2.12-3.73,2.12-3.01,0-3.94-2.03-3.94-3.74,0-1.86,1.2-3.92,5.62-3.92h1.89v-1.2c0-1.17-.33-2.38-2.42-2.38-1.79,0-2.42.82-2.62,2.18h-1.97c.18-2.06,1.38-3.75,4.66-3.75,2.58,0,4.35,1.04,4.35,3.85v5.99ZM344.79,448.2h-1.95c-2.99,0-3.55,1.21-3.55,2.34,0,1.2.73,2.2,2.28,2.2,2.42,0,3.22-1.63,3.22-4.28v-.25Z"/>
      <path class="cls-7" d="M350.13,445.71c0-2.57-.02-3.33-.05-3.86h1.98c.03.24.09,1.42.07,1.93.51-1.11,1.62-2.18,3.64-2.18,2.28,0,3.93,1.29,3.93,4.62v7.96h-2.03v-7.64c0-1.79-.61-3.17-2.44-3.17-2.2,0-3.08,1.63-3.08,4.22v6.59h-2.01v-8.47Z"/>
      <path class="cls-7" d="M371.53,451.45c0,.85.08,2.09.19,2.74h-1.83c-.08-.43-.17-1.1-.18-1.91-.47,1.24-1.72,2.12-3.73,2.12-3.01,0-3.94-2.03-3.94-3.74,0-1.86,1.2-3.92,5.62-3.92h1.89v-1.2c0-1.17-.33-2.38-2.42-2.38-1.79,0-2.42.82-2.62,2.18h-1.97c.18-2.06,1.38-3.75,4.66-3.75,2.58,0,4.35,1.04,4.35,3.85v5.99ZM369.6,448.2h-1.95c-2.99,0-3.55,1.21-3.55,2.34,0,1.2.73,2.2,2.28,2.2,2.42,0,3.22-1.63,3.22-4.28v-.25Z"/>
      <path class="cls-7" d="M384.47,453.25c0,3.84-1.54,6.02-5.29,6.02s-4.69-1.93-4.87-3.69h2c.27,1.37,1.38,2.04,2.95,2.04,2.65,0,3.25-1.73,3.25-4.42v-1.01c-.63,1.38-1.72,2.03-3.62,2.03-2.9,0-4.78-2.42-4.78-6.24s2.22-6.36,5.06-6.36c1.95,0,2.96.8,3.28,1.75,0-.53.07-1.23.1-1.51h1.97c-.02.59-.05,1.9-.05,3.58v7.82ZM376.21,447.94c0,2.86,1.21,4.51,3.17,4.51,2.36,0,3.18-1.47,3.18-4.57s-.68-4.52-3.08-4.52c-2.04,0-3.27,1.71-3.27,4.58Z"/>
      <path class="cls-7" d="M389.08,448.4c-.02,2.47,1.04,4.33,3.21,4.33,1.98,0,2.59-1.39,2.83-2.04h1.99c-.41,1.54-1.61,3.72-4.91,3.72-3.86,0-5.17-3.04-5.17-6.44,0-3.03,1.49-6.37,5.28-6.37s4.99,3.02,4.99,5.86c0,.07,0,.86-.02.94h-8.2ZM395.31,446.92c-.06-2.1-.91-3.68-3.04-3.68-2.44,0-3.02,2.21-3.13,3.68h6.18Z"/>
      <path class="cls-7" d="M399.83,445.69c0-2.19-.02-3.29-.05-3.84h1.97c.04.34.08,1.33.07,1.75.57-1.06,1.64-1.99,3.46-1.99,1.63,0,2.68.73,3.15,2.13.54-1.11,1.78-2.13,3.65-2.13s3.69.96,3.69,4.21v8.37h-1.99v-8.02c0-1.5-.48-2.8-2.25-2.8-1.92,0-2.73,1.6-2.73,3.58v7.25h-1.97v-8.13c0-1.52-.62-2.68-2.21-2.68-1.74,0-2.8,1.33-2.8,3.78v7.04h-2v-8.5Z"/>
      <path class="cls-7" d="M420.42,448.4c-.02,2.47,1.04,4.33,3.21,4.33,1.98,0,2.59-1.39,2.83-2.04h1.99c-.41,1.54-1.61,3.72-4.91,3.72-3.86,0-5.17-3.04-5.17-6.44,0-3.03,1.49-6.37,5.28-6.37s4.99,3.02,4.99,5.86c0,.07,0,.86-.02.94h-8.2ZM426.64,446.92c-.06-2.1-.91-3.68-3.04-3.68-2.44,0-3.02,2.21-3.13,3.68h6.18Z"/>
      <path class="cls-7" d="M431.16,445.71c0-2.57-.02-3.33-.05-3.86h1.98c.03.24.09,1.42.07,1.93.51-1.11,1.62-2.18,3.64-2.18,2.28,0,3.93,1.29,3.93,4.62v7.96h-2.03v-7.64c0-1.79-.61-3.17-2.44-3.17-2.2,0-3.08,1.63-3.08,4.22v6.59h-2.01v-8.47Z"/>
      <path class="cls-7" d="M442.38,441.85h1.98v-3.58h2v3.58h2.49v1.66h-2.49v7.72c0,1.03.26,1.47,1.31,1.47.34,0,.69-.03.96-.08v1.51c-.48.17-1.18.21-1.61.21-1.79,0-2.66-.68-2.66-2.73v-8.1h-1.98v-1.66Z"/>
    </g>
  </g>
</svg>